# Blender v2.82 (sub 7) OBJ File: ''
# www.blender.org
mtllib piso.mtl
o Plane_Plane.001
v -0.500000 0.000000 0.500000
v 0.500000 0.000000 0.500000
v -0.500000 0.000000 -0.500000
v 0.500000 0.000000 -0.500000
v -0.500000 0.025000 -0.500000
v -0.500000 0.025000 0.500000
v 0.500000 0.025000 0.500000
v 0.500000 0.025000 -0.500000
vt 0.000000 1.000000
vt 1.000000 0.000000
vt 0.000000 0.000000
vt 1.000000 0.000000
vt 0.000000 1.000000
vt 0.000000 0.000000
vt 1.000000 1.000000
vt 1.000000 1.000000
vn 0.0000 -1.0000 0.0000
vn 0.0000 1.0000 0.0000
vn 1.0000 0.0000 0.0000
vn -1.0000 0.0000 0.0000
vn 0.0000 0.0000 -1.0000
vn 0.0000 0.0000 1.0000
usemtl None
s off
f 3/1/1 2/2/1 1/3/1
f 7/4/2 5/5/2 6/6/2
f 4/7/3 7/4/3 2/2/3
f 1/3/4 5/5/4 3/1/4
f 3/1/5 8/8/5 4/7/5
f 2/2/6 6/6/6 1/3/6
f 3/1/1 4/7/1 2/2/1
f 7/4/2 8/8/2 5/5/2
f 4/7/3 8/8/3 7/4/3
f 1/3/4 6/6/4 5/5/4
f 3/1/5 5/5/5 8/8/5
f 2/2/6 7/4/6 6/6/6
